<svg id="LOGO_FULL" xmlns="http://www.w3.org/2000/svg" width="114.481" height="24.8" viewBox="0 0 114.481 24.8">
  <path id="Path_1" data-name="Path 1" d="M28.888,52.077c-1.122,1.753-4.024,2.253-7.973,2.253H13.377V40.6H10.6l5.244-6.67L21.1,40.6H18.31V50.26h4.617c2.327,0,.667-3.82-1.817-9.661h5.451C27.98,44.382,30.649,49.314,28.888,52.077Z" transform="translate(-10.6 -33.93)" fill="#12c896"/>
  <g id="Group_1" data-name="Group 1" transform="translate(28.534 7.602)">
    <path id="Path_2" data-name="Path 2" d="M660.926,214.823v-.564l.545-1.636h-.727A3.6,3.6,0,0,1,657.126,215c-2.836,0-4.346-2.182-4.346-4.781s1.509-4.763,4.346-4.763a3.6,3.6,0,0,1,3.618,2.382h.727l-.545-1.637v-.564h2.909v9.182h-2.909ZM658.308,208c-1.564,0-2.618.564-2.618,2.218,0,1.673,1.055,2.237,2.618,2.237s2.618-.564,2.618-2.237C660.926,208.568,659.871,208,658.308,208Z" transform="translate(-639.982 -202.022)" fill="#172349"/>
    <path id="Path_3" data-name="Path 3" d="M1319.827,205.45c2.854,0,4.854,1.691,4.854,4.472v.909h-6.963c0,1.055.763,1.8,2.418,1.8,1.018,0,1.781-.364,1.964-1.055h2.909c-.182,1.327-1.691,3.418-4.873,3.418-3.527,0-5.146-2.291-5.146-4.891C1314.99,207.2,1316.972,205.45,1319.827,205.45Zm2.127,3.745c0-.691-.509-1.382-2.127-1.382s-2.109.691-2.109,1.382Z" transform="translate(-1259.572 -202.012)" fill="#172349"/>
    <path id="Path_4" data-name="Path 4" d="M1486.983,208.27l-2.327,9.182h-6l-2.345-9.182h2.873l2.109,8.455h.727l2.091-8.455Z" transform="translate(-1410.509 -204.651)" fill="#172349"/>
    <path id="Path_5" data-name="Path 5" d="M1652.626,214.985c-3.382,0-4.836-1.364-4.836-3.509h2.909c0,.709.491,1.327,2.018,1.327.782,0,1.273-.182,1.273-.619,0-.472-.509-.6-1.982-1.091-1.709-.564-3.8-1.018-3.8-3.073,0-1.636,1.473-2.582,4-2.582,3.109,0,4.382,1.545,4.382,3.327h-2.909c0-.655-.491-1.146-1.491-1.146-.691,0-1.073.163-1.073.527,0,.436.909.709,2.363,1.182,1.781.582,3.418,1.036,3.418,2.945C1656.9,213.822,1655.79,214.985,1652.626,214.985Z" transform="translate(-1570.952 -202.003)" fill="#172349"/>
    <path id="Path_6" data-name="Path 6" d="M862.063,208.27H859.19l-2.091,8.455h-.727l-2.11-8.455H851.39l2.345,9.182h3.184l-1.071,4.33,2.758.068Z" transform="translate(-825.81 -204.651)" fill="#172349"/>
    <path id="Path_7" data-name="Path 7" d="M463.865,156.089c-.059-.147-.16-.4-.283-.7-.056-.142-.109-.285-.163-.422h-.005c-.086-.211-.178-.438-.27-.666a3.608,3.608,0,0,0-3.347-2.261H453.94v12.8h5.42c2.841,0,4.926-.359,5.733-1.62C466.192,161.5,464.895,158.6,463.865,156.089Zm-1.872,5.893a1.337,1.337,0,0,1-1.185.567h-3.955v-8.217h2.284a1.186,1.186,0,0,1,1.091.722l.158.369c.313.748.585,1.393.707,1.694C462.115,159.622,462.56,161.137,461.993,161.982Z" transform="translate(-453.94 -152.04)" fill="#172349"/>
    <path id="Path_8" data-name="Path 8" d="M1126.075,156.089c-.059-.147-.16-.4-.283-.7-.056-.142-.109-.285-.163-.422h-.005c-.086-.211-.178-.438-.27-.666a3.608,3.608,0,0,0-3.347-2.261h-5.858v12.8h5.42c2.841,0,4.926-.359,5.733-1.62C1128.4,161.5,1127.1,158.6,1126.075,156.089Zm-1.872,5.893a1.337,1.337,0,0,1-1.185.567h-3.955v-8.217h2.284a1.186,1.186,0,0,1,1.091.722l.158.369c.313.748.585,1.393.707,1.694C1124.325,159.622,1124.769,161.137,1124.2,161.982Z" transform="translate(-1073.529 -152.04)" fill="#172349"/>
  </g>
</svg>
