<?xml version="1.0" standalone="no"?>
<!DOCTYPE svg PUBLIC "-//W3C//DTD SVG 20010904//EN"
 "http://www.w3.org/TR/2001/REC-SVG-20010904/DTD/svg10.dtd">
<svg version="1.0" xmlns="http://www.w3.org/2000/svg"
 width="640.000000pt" height="640.000000pt" viewBox="0 0 640.000000 640.000000"
 preserveAspectRatio="xMidYMid meet">
<metadata>
Created by potrace 1.14, written by Peter Selinger 2001-2017
</metadata>
<g transform="translate(0.000000,640.000000) scale(0.100000,-0.100000)"
fill="#000000" stroke="none">
<path d="M1776 6261 c-59 -75 -117 -149 -131 -166 -13 -16 -92 -118 -176 -225
-84 -107 -157 -196 -161 -198 -4 -2 -8 -9 -8 -16 0 -6 -9 -18 -20 -26 -11 -8
-20 -18 -20 -22 0 -4 -8 -16 -17 -27 -10 -10 -45 -53 -78 -96 -33 -43 -64 -83
-70 -89 -5 -6 -39 -49 -75 -96 -35 -47 -77 -98 -92 -115 -15 -16 -28 -33 -28
-37 0 -4 -6 -13 -13 -20 -7 -7 -37 -44 -67 -83 -30 -38 -57 -72 -60 -75 -3 -3
-17 -21 -30 -40 -13 -19 -27 -37 -31 -40 -4 -3 -28 -32 -53 -65 -25 -33 -49
-64 -53 -70 -5 -5 -51 -64 -104 -130 -52 -66 -108 -138 -124 -160 -17 -22 -38
-47 -47 -56 -10 -9 -18 -19 -18 -23 0 -4 -5 -12 -10 -19 -23 -26 -50 -60 -50
-61 0 -1 196 0 435 1 l435 1 0 -2154 0 -2155 1458 4 c801 3 1489 8 1527 11
174 13 315 25 365 31 19 2 60 7 90 10 30 4 66 8 80 10 14 2 43 7 65 10 36 4
190 33 270 50 429 90 788 280 962 510 103 136 184 325 209 490 2 17 7 50 12
75 9 58 9 365 -1 450 -10 89 -25 180 -42 270 -9 41 -17 84 -19 95 -2 11 -16
67 -31 125 -15 58 -28 110 -29 115 -2 6 -9 30 -16 55 -8 25 -14 47 -15 50 0 3
-6 21 -13 41 -7 20 -14 45 -16 55 -6 24 -126 369 -159 454 -14 36 -37 97 -52
135 -14 39 -30 80 -36 93 -11 26 -20 48 -49 122 -11 30 -25 64 -30 75 -5 11
-50 121 -101 245 -50 124 -99 244 -110 267 -10 24 -19 45 -19 47 0 3 -5 17
-12 33 -6 15 -12 30 -13 33 -1 3 -6 14 -10 25 -21 49 -106 261 -109 270 -1 6
-6 20 -10 32 l-7 21 -854 0 c-470 0 -855 -2 -855 -5 0 -2 9 -23 19 -46 10 -23
56 -130 100 -237 45 -107 90 -213 100 -235 11 -22 44 -101 74 -175 31 -74 63
-153 73 -175 10 -22 18 -42 19 -45 2 -7 23 -59 34 -85 19 -45 31 -75 71 -175
23 -58 46 -114 50 -125 4 -11 16 -40 25 -65 9 -25 22 -56 28 -70 5 -14 11 -29
13 -35 1 -5 8 -23 15 -40 6 -16 13 -34 15 -40 1 -5 14 -41 29 -80 44 -114 149
-434 160 -490 2 -5 10 -35 19 -65 9 -30 19 -71 22 -90 3 -19 8 -42 11 -50 3
-8 7 -24 8 -35 1 -11 6 -36 10 -55 18 -76 26 -288 13 -345 -5 -22 -11 -47 -13
-56 -10 -48 -80 -149 -104 -149 -6 0 -11 -4 -11 -8 0 -11 -55 -32 -120 -46
-39 -8 -263 -11 -790 -10 -404 1 -741 2 -748 3 -9 1 -10 6 -2 20 5 11 6 22 1
25 -7 5 -8 29 -1 61 1 6 2 15 1 20 -5 29 -2 376 3 384 4 5 2 12 -2 15 -8 5 -9
29 -2 61 1 6 2 15 1 20 -5 29 -2 376 3 384 4 5 2 12 -2 15 -8 5 -9 29 -2 61 1
6 2 15 1 20 -5 29 -2 376 3 384 4 5 2 12 -2 15 -8 5 -9 29 -2 61 1 6 2 15 1
20 -5 29 -2 376 3 384 4 5 2 12 -2 15 -8 5 -9 29 -2 61 1 6 2 15 1 20 -5 29
-2 376 3 384 4 5 2 12 -2 15 -10 6 -8 48 2 65 4 5 2 12 -2 15 -10 6 -8 48 2
65 4 5 2 12 -2 15 -8 5 -9 29 -2 61 1 6 2 12 1 15 -2 5 -3 170 -2 281 l1 67
431 0 c237 0 432 2 434 4 2 2 -40 57 -92 123 -53 66 -110 139 -127 161 -60 79
-197 254 -209 266 -7 7 -24 29 -37 48 -13 19 -27 37 -30 40 -4 3 -59 73 -124
155 -65 83 -125 159 -134 170 -10 12 -39 50 -67 85 -27 36 -54 70 -60 77 -18
21 -54 67 -86 108 -17 22 -43 56 -59 75 -52 64 -155 196 -180 230 -14 19 -32
41 -40 50 -8 9 -28 34 -45 55 -16 22 -35 47 -42 55 -76 93 -263 332 -263 336
0 3 -11 15 -23 28 l-24 24 -107 -137z"/>
</g>
</svg>
