<svg id="Featured_icon" data-name="Featured icon" xmlns="http://www.w3.org/2000/svg" width="48" height="48" viewBox="0 0 48 48">
  <rect id="Featured_icon-2" data-name="Featured icon" width="48" height="48" rx="10" fill="#14234c"/>
  <path id="icons8-people_1_" data-name="icons8-people (1)" d="M12.915,5C8.659,5,7.078,8.289,8.3,11.075a1.041,1.041,0,0,0-.345.975c.1,1.012.557,1.254.81,1.305A3.531,3.531,0,0,0,9.825,15.59c0,.658-.009,1.209-.06,1.92-.776,2.038-5.738,1.566-6.375,5.22a.492.492,0,0,0,.465.51h16.3a.4.4,0,0,0,.45-.525c-.649-3.639-5.6-3.169-6.375-5.2-.051-.761-.06-1.262-.06-1.92a3.679,3.679,0,0,0,1.02-2.235c.253,0,.658-.306.81-1.32.051-.557-.158-.909-.36-.96.81-1.013.664-5.16-2.325-5.16ZM7.275,7.4c-3.2.054-4.609,2.6-3.645,4.785a.8.8,0,0,0-.255.78c.1.821.409,1.02.615,1.02A3.212,3.212,0,0,0,4.8,15.77a8.816,8.816,0,0,1-.045,1.11C4.339,18.193,0,18.095,0,21.32a.47.47,0,0,0,.48.48H2.655c.733-2.074,2.726-2.873,4.23-3.465A4.626,4.626,0,0,0,8.82,17.27c.028-.446.043-.825.045-1.245A5.049,5.049,0,0,1,7.905,14a2.51,2.51,0,0,1-.915-1.875,2.158,2.158,0,0,1,.225-1.215A5.294,5.294,0,0,1,7.275,7.4Zm10.965,0a9.882,9.882,0,0,0-1.515.12,5.586,5.586,0,0,1,.06,3.435,2.326,2.326,0,0,1,.18,1.17l-.015.03v.03a2.7,2.7,0,0,1-.9,1.83,5.212,5.212,0,0,1-.915,2c0,.413.017.784.045,1.26a4.639,4.639,0,0,0,1.935,1.065c1.5.591,3.5,1.391,4.23,3.465H23.52a.46.46,0,0,0,.48-.465c0-3.712-4.108-2.833-4.725-4.53a7.45,7.45,0,0,1-.06-1.08,2.881,2.881,0,0,0,.78-1.74c.206,0,.512-.212.615-1.035.051-.411-.1-.714-.255-.765.619-.823.517-4.065-1.8-4.065Z" transform="translate(12 9.88)" fill="#fff"/>
</svg>
