<svg id="Featured_icon" data-name="Featured icon" xmlns="http://www.w3.org/2000/svg" width="48" height="48" viewBox="0 0 48 48">
  <rect id="Featured_icon-2" data-name="Featured icon" width="48" height="48" rx="10" fill="#14234c"/>
  <path id="icons8-handshake_2_" data-name="icons8-handshake (2)" d="M16.421,4.117A3.633,3.633,0,0,0,15,4.492l-2.639,1.29H4.844l-4.274-1a.461.461,0,0,0-.42.09A.4.4,0,0,0,0,5.211V15.664a.524.524,0,0,0,.39.48l1.59.27a1.79,1.79,0,0,0,1.815,2.234,1.8,1.8,0,0,0,1.875,1.875,1.795,1.795,0,0,0,1.83,1.86,1.779,1.779,0,0,0,.51,1.3l.015.015a1.822,1.822,0,0,0,1.995.36l.78.78a2.069,2.069,0,0,0,1.44.615,1.887,1.887,0,0,0,1.44-.615,2.206,2.206,0,0,0,.63-1.395,2.274,2.274,0,0,0,1.965-.525,2.189,2.189,0,0,0,.615-1.395A2.3,2.3,0,0,0,18.865,21a2.089,2.089,0,0,0,.57-1.635,2.04,2.04,0,0,0,1.635-.585,2.122,2.122,0,0,0,.525-2.01l.225-.225,1.77-.255a.486.486,0,0,0-.15-.96l-1.92.3-.15.015-.63.63-5.819-5.834a.482.482,0,0,0-.51-.795l-3.119,1.2A4.169,4.169,0,0,1,6.643,9.785L6.628,9.77c-.062-.062-.066-.1.015-.135h.03l.015-.015,8.728-4.274h.015a2.7,2.7,0,0,1,2.729.195l.18.21.045.06.06.03a3.5,3.5,0,0,0,2.909.495v.015l.03-.015,2.234-.465a.484.484,0,0,0-.21-.945l-2.249.48-.015.015H21.13a2.522,2.522,0,0,1-2.1-.36l-.18-.21-.045-.045-.06-.045a3.643,3.643,0,0,0-1.83-.645A3.963,3.963,0,0,0,16.421,4.117ZM4.2,15.5a.857.857,0,0,1,.6.27.813.813,0,0,1,0,1.2l-.375.36-.045.045-.06.075a.813.813,0,0,1-1.2,0,.813.813,0,0,1,0-1.2l.42-.4.06-.075A.857.857,0,0,1,4.2,15.5Zm1.875,1.875a.857.857,0,0,1,.6.27.8.8,0,0,1,0,1.185l-.48.48a.813.813,0,0,1-1.2,0,.8.8,0,0,1,0-1.185l.48-.48A.857.857,0,0,1,6.074,17.373Zm1.875,1.875a.825.825,0,0,1,.585.27.787.787,0,0,1,.15.99,1.636,1.636,0,0,0-.195.15l-.48.48v.015H7.993a1.732,1.732,0,0,0-.135.18.787.787,0,0,1-.99-.15.8.8,0,0,1,0-1.185l.36-.375.09-.075.03-.03A.857.857,0,0,1,7.948,19.248Zm1.815,1.83a.839.839,0,0,1,.6.255.813.813,0,0,1,0,1.2l-.48.48a.813.813,0,0,1-1.2,0,.959.959,0,0,1-.12-1.02,1.8,1.8,0,0,0,.18-.135l.48-.48a1.766,1.766,0,0,0,.165-.21A.842.842,0,0,1,9.763,21.077Z" transform="translate(12 9.217)" fill="#fff"/>
</svg>
