<svg id="Featured_icon" data-name="Featured icon" xmlns="http://www.w3.org/2000/svg" width="48" height="48" viewBox="0 0 48 48">
  <rect id="Featured_icon-2" data-name="Featured icon" width="48" height="48" rx="10" fill="#14234c"/>
  <g id="zap" transform="translate(12 12)">
    <rect id="zap-2" data-name="zap" width="24" height="24" fill="none"/>
    <path id="icons8-conference" d="M24,13.516a2.963,2.963,0,0,0-2.087-2.666,1.977,1.977,0,0,1-.952-.669c-.021-.272-.019-.491-.017-.74V9.4a2.921,2.921,0,0,0,.538-1.156,1.358,1.358,0,0,0,.5-1.022,1.114,1.114,0,0,0-.142-.716,3.883,3.883,0,0,0-.124-2.816,1.682,1.682,0,0,0-1.076-.763,1.942,1.942,0,0,0-1.474-.506h0a2.723,2.723,0,0,0-2.257.965,3.711,3.711,0,0,0-.341,3.1,1.11,1.11,0,0,0-.152.733,1.35,1.35,0,0,0,.506,1.022A2.977,2.977,0,0,0,17.473,9.4v.038c0,.247,0,.466-.017.736a.938.938,0,0,1-.392.332,3.828,3.828,0,0,0-2.293-2.087,2.239,2.239,0,0,1-1.012-.663c-.021-.27-.019-.487-.017-.736l0-.04a2.935,2.935,0,0,0,.538-1.156,1.353,1.353,0,0,0,.5-1.022,1.105,1.105,0,0,0-.141-.716,3.9,3.9,0,0,0-.124-2.814A1.694,1.694,0,0,0,13.444.514a1.888,1.888,0,0,0-1.476-.5A2.727,2.727,0,0,0,9.709.981a3.7,3.7,0,0,0-.339,3.1,1.11,1.11,0,0,0-.152.733,1.338,1.338,0,0,0,.506,1.022,2.974,2.974,0,0,0,.549,1.156v.04c0,.249,0,.466-.017.735a2.244,2.244,0,0,1-1.016.663,3.837,3.837,0,0,0-2.3,2.087.926.926,0,0,1-.392-.332c-.021-.272-.019-.491-.017-.742V9.4a2.974,2.974,0,0,0,.549-1.156,1.359,1.359,0,0,0,.506-1.024,1.11,1.11,0,0,0-.152-.733,3.706,3.706,0,0,0-.341-3.1,2.73,2.73,0,0,0-2.267-.965,1.932,1.932,0,0,0-1.466.506A1.693,1.693,0,0,0,2.28,3.7,3.886,3.886,0,0,0,2.158,6.51a1.12,1.12,0,0,0-.142.718,1.358,1.358,0,0,0,.5,1.022A2.913,2.913,0,0,0,3.058,9.4v.04c0,.249,0,.468-.017.74a1.984,1.984,0,0,1-.953.667A2.974,2.974,0,0,0,0,13.544v5.318a.559.559,0,0,0,.009.1c.028.142.733,3.3,5.522,4.878a1.872,1.872,0,0,0,.7.144c0-.213,0-.568.017-.92.18-1.766,1.592-2.342,2.631-2.767.566-.23,1.1-.449,1.26-.763.024-.3.021-.54.019-.814v-.055a3.175,3.175,0,0,1-.6-1.269A1.414,1.414,0,0,1,9.009,16.3a1.16,1.16,0,0,1,.167-.782,4,4,0,0,1,.36-3.36,2.917,2.917,0,0,1,2.422-1.033,2.057,2.057,0,0,1,1.581.546,1.8,1.8,0,0,1,1.159.814,4.211,4.211,0,0,1,.124,3.048,1.164,1.164,0,0,1,.159.769,1.413,1.413,0,0,1-.546,1.09,3.177,3.177,0,0,1-.589,1.265l0,.059c0,.274,0,.514.019.814.161.315.694.534,1.256.763,1.041.427,2.456,1.007,2.625,2.767.021.257.015.744.011.956.452-.051.48-.1.48-.1,5.008-1.556,5.724-4.814,5.754-4.961a.559.559,0,0,0,.009-.1Z" transform="translate(0 -0.016)" fill="#fff"/>
  </g>
</svg>
