<svg xmlns="http://www.w3.org/2000/svg" width="62" height="39.355" viewBox="0 0 62 39.355">
  <path id="Vector" d="M42.9.082,45.5,1.6a1,1,0,0,1,.5.863V21.5a1.007,1.007,0,0,1-.5.871l-5.988,3.492a1.011,1.011,0,0,1-1.016,0L32.5,22.367A1,1,0,0,1,32,21.5V14.5a1.007,1.007,0,0,1,.5-.871l5.988-3.492a1.011,1.011,0,0,1,1.016,0L42,11.594V.6a.6.6,0,0,1,.6-.6.59.59,0,0,1,.3.082ZM23.508,10.141,29.5,13.633a1,1,0,0,1,.5.871V21.5a1.007,1.007,0,0,1-.5.871l-5.988,3.492a1.013,1.013,0,0,1-1.016,0L16.5,22.367A1,1,0,0,1,16,21.5V14.5a1.007,1.007,0,0,1,.5-.871l5.988-3.492a1.011,1.011,0,0,1,1.016,0Zm32,0L61.5,13.633a1,1,0,0,1,.5.871v1.859a1,1,0,0,1-.5.863s-2.279,1.322-3.035,1.766A.294.294,0,0,1,58,18.719v-2.5l-3-1.746-3,1.746v3.59l6.188,3.645a.447.447,0,0,1,0,.773l-2.855,1.66a1,1,0,0,1-1.02-.008L48.5,22.367A1,1,0,0,1,48,21.5V14.5a1.007,1.007,0,0,1,.5-.871l5.988-3.492a1.011,1.011,0,0,1,1.016,0Zm-48,0L13.5,13.633a1.013,1.013,0,0,1,.5.875v8.926a.564.564,0,0,1-.848.488L10.5,22.375a1,1,0,0,1-.5-.863V16.227l-3-1.75-3,1.75v5.285a1,1,0,0,1-.5.863L.848,23.922A.564.564,0,0,1,0,23.434V14.508a1.013,1.013,0,0,1,.5-.875l5.988-3.488a1.011,1.011,0,0,1,1.016,0ZM36,16.223v3.555l3,1.75,3-1.75V16.223l-3-1.75Zm20.715.785v2L55,20l-1.715-1v-2l1.715-1ZM31.4,24.148l5.625,3.25a1.205,1.205,0,0,1,.594,1.023v6.492a1.172,1.172,0,0,1-.594,1.023L31.4,39.191a1.089,1.089,0,0,1-.586.164,1.283,1.283,0,0,1-.594-.156L28.352,38.09c-.282-.156-.149-.216-.051-.246a3.367,3.367,0,0,0,.848-.391.165.165,0,0,1,.137.012l1.438.855a.183.183,0,0,0,.176,0l5.629-3.254a.187.187,0,0,0,.086-.156V28.418a.166.166,0,0,0-.086-.156L30.9,25.02a.183.183,0,0,0-.176,0L25.1,28.262a.177.177,0,0,0-.086.156V34.91a.182.182,0,0,0,.086.148l1.539.887c.838.418,1.352-.08,1.352-.566V28.965a.168.168,0,0,1,.168-.168h.711a.164.164,0,0,1,.164.168v6.414a1.554,1.554,0,0,1-1.664,1.754,2.414,2.414,0,0,1-1.293-.352l-1.48-.844A1.2,1.2,0,0,1,24,34.914V28.422a1.172,1.172,0,0,1,.594-1.023l5.625-3.25A1.21,1.21,0,0,1,30.813,24a1.168,1.168,0,0,1,.586.152Zm9.266,3.922a1.078,1.078,0,1,1-1.078-1.078,1.067,1.067,0,0,1,1.078,1.078Zm-1.992,0a.911.911,0,0,0,.9.918.934.934,0,0,0,.918-.918.91.91,0,0,0-1.82,0Zm.926-.613c.146,0,.426,0,.426.32a.285.285,0,0,1-.234.3c.166.01.175.117.2.273a1.431,1.431,0,0,0,.059.324H39.8c-.01-.058-.047-.373-.047-.383-.02-.068-.041-.105-.129-.105H39.41v.484h-.23V27.457Zm-.187.535h.184a.165.165,0,0,0,.188-.176c0-.166-.116-.164-.176-.164h-.2Zm-4.285,2.621a.147.147,0,0,1-.039.125.165.165,0,0,1-.117.047h-.73a.151.151,0,0,1-.152-.125c-.176-.778-.608-1.031-1.766-1.031-1.294,0-1.437.445-1.437.785,0,.41.174.528,1.926.762,1.732.234,2.551.557,2.551,1.773s-1.022,1.928-2.828,1.93c-2.462,0-2.977-1.13-2.977-2.074a.164.164,0,0,1,.164-.168h.73a.163.163,0,0,1,.168.137c.108.74.436,1.109,1.926,1.109,1.188,0,1.7-.263,1.7-.895,0-.36-.144-.625-1.984-.809-1.538-.156-2.492-.487-2.492-1.723,0-1.128.953-1.812,2.559-1.812,1.8,0,2.689.625,2.8,1.969Z" transform="translate(0 0)" fill="#9da8c6"/>
</svg>
