<svg id="icons8-angularjs" xmlns="http://www.w3.org/2000/svg" width="64" height="64" viewBox="0 0 64 64">
  <rect id="icons8-angularjs-2" data-name="icons8-angularjs" width="64" height="64" fill="none"/>
  <path id="Vector" d="M28.485.065,55.45,9.225a1.28,1.28,0,0,1,.86,1.368L52.077,45.308a1.28,1.28,0,0,1-.655.967L28.717,58.72a1.279,1.279,0,0,1-1.225,0L4.9,46.445a1.274,1.274,0,0,1-.658-.97L.01,10.758A1.277,1.277,0,0,1,.86,9.4L27.652.07A1.315,1.315,0,0,1,28.07,0a1.291,1.291,0,0,1,.415.065ZM11.52,42.238H17.2l3.56-7.67h14.8l3.56,7.67H44.8L28.16,6.4Zm21.658-12.8H23.142l5.017-10.88Z" transform="translate(3.84 2.562)" fill="#9da8c6"/>
</svg>
