<svg xmlns="http://www.w3.org/2000/svg" width="53.76" height="53.76" viewBox="0 0 53.76 53.76">
  <path id="Vector" d="M53.76,3.415V50.35a3.415,3.415,0,0,1-3.415,3.41H3.415A3.416,3.416,0,0,1,0,50.345V3.415A3.416,3.416,0,0,1,3.415,0H50.35a3.415,3.415,0,0,1,3.41,3.415ZM29.44,24.32H24.32v16.1c0,2.47-.935,3.1-2.56,3.1A4.19,4.19,0,0,1,18.1,41.085L14.08,43.52a8.986,8.986,0,0,0,7.98,5.12c4.38,0,7.38-2.33,7.38-7.445Zm19.2,17.515c0-4.08-2.34-5.9-6.495-7.67l-1.22-.525c-2.1-.91-3-1.5-3-2.965A2.125,2.125,0,0,1,40.26,28.58,3.321,3.321,0,0,1,43.4,30.675l3.8-2.445a7.217,7.217,0,0,0-6.945-3.91c-4.36,0-7.155,2.79-7.155,6.45,0,3.98,2.345,5.86,5.87,7.36l1.22.525c2.225.975,3.325,1.57,3.325,3.24,0,1.4-1.06,2.41-3.085,2.41-2.41,0-3.55-1.635-4.6-3.345L32,43.52a8.916,8.916,0,0,0,8.545,5.12c4.64,0,8.1-2.41,8.1-6.805Z" transform="translate(0 0)" fill="#9da8c6"/>
</svg>
