<svg id="icons8-react-native" xmlns="http://www.w3.org/2000/svg" width="64" height="64" viewBox="0 0 64 64">
  <rect id="icons8-react-native-2" data-name="icons8-react-native" width="64" height="64" fill="none"/>
  <path id="Vector" d="M44.49.774a7.2,7.2,0,0,1,3.2,4.962,21.011,21.011,0,0,1-.05,7.582c-.161,1-.393,2.052-.655,3.122.991.3,1.954.614,2.845.962a20.453,20.453,0,0,1,6.445,3.75,7.232,7.232,0,0,1,2.63,5.23,7.227,7.227,0,0,1-2.63,5.227,20.455,20.455,0,0,1-6.445,3.752c-.968.378-2.017.717-3.1,1.037a41.169,41.169,0,0,1,.9,4.092,20.979,20.979,0,0,1,.053,7.57,7.169,7.169,0,0,1-3.185,4.945,7.175,7.175,0,0,1-5.877.287,20.988,20.988,0,0,1-6.533-3.83c-.879-.715-1.767-1.53-2.657-2.4-.886.862-1.77,1.673-2.645,2.385a21,21,0,0,1-6.54,3.833,7.2,7.2,0,0,1-5.9-.287,7.2,7.2,0,0,1-3.2-4.965,21,21,0,0,1,.05-7.58,41.2,41.2,0,0,1,.892-4.08c-1.05-.312-2.068-.643-3.007-1.01A20.455,20.455,0,0,1,2.63,31.612,7.227,7.227,0,0,1,0,26.384a7.232,7.232,0,0,1,2.63-5.23A20.453,20.453,0,0,1,9.075,17.4c.879-.343,1.827-.654,2.8-.95-.26-1.064-.488-2.107-.648-3.1a20.993,20.993,0,0,1-.052-7.573A7.172,7.172,0,0,1,14.365.834,7.175,7.175,0,0,1,20.243.547a20.99,20.99,0,0,1,6.53,3.833c.863.7,1.736,1.5,2.61,2.35.894-.871,1.785-1.692,2.668-2.41A21.016,21.016,0,0,1,38.593.484,9.088,9.088,0,0,1,41.683,0a5.946,5.946,0,0,1,2.807.77ZM39.4,2.974A18.787,18.787,0,0,0,33.7,6.352c-.816.664-1.651,1.431-2.493,2.252a61.684,61.684,0,0,1,4.7,5.782,59.389,59.389,0,0,1,8.545,1.372c.24-.985.452-1.946.6-2.852a18.8,18.8,0,0,0,.077-6.622,4.572,4.572,0,0,0-1.95-3.245,3.358,3.358,0,0,0-1.618-.43,6.519,6.519,0,0,0-2.167.365Zm-23.752.077A4.6,4.6,0,0,0,13.68,6.314a18.8,18.8,0,0,0,.075,6.63c.145.9.356,1.858.6,2.837A59.16,59.16,0,0,1,22.858,14.4,61.822,61.822,0,0,1,27.6,8.567c-.824-.8-1.641-1.555-2.44-2.2a18.8,18.8,0,0,0-5.7-3.38,6.522,6.522,0,0,0-2.175-.365,3.39,3.39,0,0,0-1.63.435ZM26.3,14.162c1.036-.044,2.084-.07,3.15-.07,1.045,0,2.074.025,3.09.068-1.034-1.336-2.077-2.578-3.12-3.712-1.043,1.136-2.085,2.378-3.12,3.715Zm-1.995,2.713c-1.129,1.623-2.236,3.343-3.288,5.165-.945,1.637-1.8,3.272-2.575,4.885.772,1.6,1.623,3.23,2.563,4.858.816,1.413,1.667,2.756,2.532,4.053,1.905.163,3.88.255,5.913.255,1.984,0,3.916-.087,5.78-.243.88-1.315,1.746-2.679,2.575-4.115.942-1.631,1.8-3.26,2.57-4.868-.765-1.587-1.606-3.193-2.535-4.8-1.057-1.831-2.167-3.562-3.3-5.193-1.65-.121-3.347-.192-5.087-.192-1.761,0-3.477.074-5.145.2ZM40.06,20.782c.593,1.028,1.142,2.053,1.673,3.075a57.623,57.623,0,0,0,2.037-5.6,55.147,55.147,0,0,0-5.935-1.067c.757,1.16,1.506,2.347,2.225,3.593Zm-25.023-2.5a57.6,57.6,0,0,0,2.023,5.568c.536-1.035,1.1-2.074,1.7-3.115.7-1.22,1.434-2.384,2.175-3.523A54.929,54.929,0,0,0,15.038,18.279Zm28.195,8.645a63.392,63.392,0,0,1,2.763,7c1.02-.3,2-.616,2.9-.965a18.237,18.237,0,0,0,5.632-3.243,4.621,4.621,0,0,0,1.8-3.33,4.621,4.621,0,0,0-1.8-3.33,18.237,18.237,0,0,0-5.632-3.243c-.8-.314-1.68-.6-2.588-.875a61.992,61.992,0,0,1-3.07,7.987ZM10.015,19.812a18.237,18.237,0,0,0-5.633,3.243,4.621,4.621,0,0,0-1.8,3.33,4.621,4.621,0,0,0,1.8,3.33,18.237,18.237,0,0,0,5.633,3.242c.865.338,1.813.646,2.8.938a63.392,63.392,0,0,1,2.778-7.038,61.856,61.856,0,0,1-3.03-7.907c-.892.271-1.754.553-2.545.862ZM35.853,26.9a6.4,6.4,0,1,1-6.4-6.4,6.42,6.42,0,0,1,6.4,6.4Zm-20.5,7.657c1.534.357,3.169.659,4.887.9-.49-.782-.972-1.579-1.445-2.4-.6-1.046-1.164-2.09-1.7-3.13C16.422,31.516,15.838,33.067,15.35,34.562Zm24.722-1.522c-.479.829-.969,1.636-1.465,2.428,1.724-.237,3.363-.538,4.9-.9-.49-1.5-1.074-3.052-1.745-4.64-.535,1.033-1.093,2.069-1.693,3.108Zm-26.3,7.83a18.775,18.775,0,0,0-.075,6.62,4.57,4.57,0,0,0,1.948,3.245,4.572,4.572,0,0,0,3.785.065,18.781,18.781,0,0,0,5.7-3.375c.808-.657,1.634-1.42,2.468-2.232a63.125,63.125,0,0,1-5.493-6.9,58.75,58.75,0,0,1-7.49-1.245,38.343,38.343,0,0,0-.84,3.822ZM36.74,38.3a63.023,63.023,0,0,1-5.53,6.935c.839.819,1.671,1.588,2.485,2.25a18.8,18.8,0,0,0,5.705,3.38,4.606,4.606,0,0,0,3.81-.068,4.6,4.6,0,0,0,1.96-3.265A18.8,18.8,0,0,0,45.1,40.9a38.3,38.3,0,0,0-.845-3.842,58.88,58.88,0,0,1-7.51,1.24Zm-7.355,5.053a58.929,58.929,0,0,0,3.948-4.787c-1.273.067-2.561.112-3.88.112-1.364,0-2.7-.048-4.01-.12a59.132,59.132,0,0,0,3.942,4.795Z" transform="translate(2.547 5.096)" fill="#9da8c6" fill-rule="evenodd"/>
</svg>
