<svg xmlns="http://www.w3.org/2000/svg" width="56.32" height="56.32" viewBox="0 0 56.32 56.32">
  <path id="Vector" d="M56.32,14.72V41.6A14.737,14.737,0,0,1,41.6,56.32H14.72A14.737,14.737,0,0,1,0,41.6V14.72A14.737,14.737,0,0,1,14.72,0H41.6A14.737,14.737,0,0,1,56.32,14.72ZM43.52,35.04a12.464,12.464,0,0,0,1.28-5.76c0-4.918-2.88-13.44-12.38-20.265a.255.255,0,0,0-.372.34c1.46,2.131,4.984,7.58,5.07,13.044a21.743,21.743,0,0,1-1.277,7.04S23.089,19.656,15.793,12.872a.254.254,0,0,0-.379.335c2.666,3.752,9.076,12.189,11.229,14,0,0-5.8-3.224-15.969-11.78a.256.256,0,0,0-.375.344C12.8,19.52,24.539,32.954,29.44,35.84A13.485,13.485,0,0,1,21.12,38.4c-3.638,0-8.89-1.661-14.319-5.075a.253.253,0,0,0-.36.34C8.315,36.611,15.552,46.079,28.32,46.08c6.87,0,9.482-3.593,12.895-3.593,3.54,0,5.652,3.593,5.652,3.593,2.07-5.13-3.347-11.04-3.347-11.04Z" transform="translate(0 0)" fill="#9da8c6"/>
</svg>
