<svg xmlns="http://www.w3.org/2000/svg" width="61.44" height="33.28" viewBox="0 0 61.44 33.28">
  <path id="Vector" d="M61.44,16.64c0,9.33-13.495,16.64-30.72,16.64S0,25.97,0,16.64,13.495,0,30.72,0,61.44,7.31,61.44,16.64ZM24.32,20.48h3.36L29.3,12.8h2.685a2.359,2.359,0,0,1,1.685.425,1.891,1.891,0,0,1,.17,1.6L32.615,20.48h3.41l1.33-6.115c.285-1.465.07-2.54-.64-3.195s-2-.93-3.9-.93H29.82l1.065-5.12H27.53ZM10.2,24.32H13.6l.67-3.84h2.11c4.41,0,6.81-1.025,7.7-4.805.77-3.255-1.2-5.435-4.455-5.435H12.8Zm26.88,0h3.39l.67-3.84h2.11c4.41,0,6.81-1.025,7.705-4.805.77-3.255-1.2-5.435-4.455-5.435H39.68ZM18.345,12.8c2.19,0,2.645.985,2.535,2.08-.3,2.825-2.055,3.04-3.95,3.04H14.74L15.7,12.8Zm26.88,0c2.19,0,2.645.985,2.535,2.08-.295,2.825-2.055,3.04-3.95,3.04H41.62l.965-5.12Z" fill="#9da8c6"/>
</svg>
